<svg width="58" height="16" viewBox="0 0 58 16" fill="none" xmlns="http://www.w3.org/2000/svg">
<rect x="0.5" y="0.5" width="57" height="15" rx="3.5" fill="#FED154" stroke="#475264"/>
<path d="M10.2344 9.19336H11.8457C11.8027 9.76367 11.6445 10.2695 11.3711 10.7109C11.0977 11.1484 10.7168 11.4922 10.2285 11.7422C9.74023 11.9922 9.14844 12.1172 8.45312 12.1172C7.91797 12.1172 7.43555 12.0234 7.00586 11.8359C6.58008 11.6445 6.21484 11.373 5.91016 11.0215C5.60938 10.666 5.37891 10.2402 5.21875 9.74414C5.05859 9.24414 4.97852 8.68359 4.97852 8.0625V7.41211C4.97852 6.79102 5.06055 6.23047 5.22461 5.73047C5.38867 5.23047 5.62305 4.80469 5.92773 4.45312C6.23633 4.09766 6.60547 3.82422 7.03516 3.63281C7.46875 3.44141 7.95312 3.3457 8.48828 3.3457C9.18359 3.3457 9.77148 3.47461 10.252 3.73242C10.7324 3.98633 11.1055 4.33594 11.3711 4.78125C11.6367 5.22656 11.7969 5.73828 11.8516 6.31641H10.2402C10.209 5.95703 10.1309 5.65234 10.0059 5.40234C9.88477 5.15234 9.70117 4.96289 9.45508 4.83398C9.21289 4.70117 8.89062 4.63477 8.48828 4.63477C8.17578 4.63477 7.90039 4.69336 7.66211 4.81055C7.42773 4.92773 7.23242 5.10352 7.07617 5.33789C6.91992 5.56836 6.80273 5.85742 6.72461 6.20508C6.64648 6.54883 6.60742 6.94727 6.60742 7.40039V8.0625C6.60742 8.49609 6.64258 8.88477 6.71289 9.22852C6.7832 9.57227 6.89258 9.86328 7.04102 10.1016C7.18945 10.3398 7.38086 10.5215 7.61523 10.6465C7.84961 10.7715 8.12891 10.834 8.45312 10.834C8.84766 10.834 9.16797 10.7715 9.41406 10.6465C9.66406 10.5215 9.85352 10.3379 9.98242 10.0957C10.1152 9.85352 10.1992 9.55273 10.2344 9.19336ZM19.7078 10.7344V12H15.4187V10.7344H19.7078ZM15.9051 3.46875V12H14.2937V3.46875H15.9051ZM28.5074 7.51758V7.95703C28.5074 8.60156 28.4215 9.18164 28.2496 9.69727C28.0777 10.209 27.8336 10.6445 27.5172 11.0039C27.2008 11.3633 26.8238 11.6387 26.3863 11.8301C25.9488 12.0215 25.4625 12.1172 24.9273 12.1172C24.4 12.1172 23.9156 12.0215 23.4742 11.8301C23.0367 11.6387 22.6578 11.3633 22.3375 11.0039C22.0172 10.6445 21.7691 10.209 21.5934 9.69727C21.4176 9.18164 21.3297 8.60156 21.3297 7.95703V7.51758C21.3297 6.86914 21.4176 6.28906 21.5934 5.77734C21.7691 5.26562 22.0152 4.83008 22.3316 4.4707C22.648 4.10742 23.025 3.83008 23.4625 3.63867C23.9039 3.44727 24.3883 3.35156 24.9156 3.35156C25.4508 3.35156 25.9371 3.44727 26.3746 3.63867C26.8121 3.83008 27.1891 4.10742 27.5055 4.4707C27.8258 4.83008 28.0719 5.26562 28.2437 5.77734C28.4195 6.28906 28.5074 6.86914 28.5074 7.51758ZM26.8785 7.95703V7.50586C26.8785 7.04102 26.8355 6.63281 26.7496 6.28125C26.6637 5.92578 26.5367 5.62695 26.3687 5.38477C26.2008 5.14258 25.9937 4.96094 25.7477 4.83984C25.5016 4.71484 25.2242 4.65234 24.9156 4.65234C24.6031 4.65234 24.3258 4.71484 24.0836 4.83984C23.8453 4.96094 23.6422 5.14258 23.4742 5.38477C23.3062 5.62695 23.1773 5.92578 23.0875 6.28125C23.0016 6.63281 22.9586 7.04102 22.9586 7.50586V7.95703C22.9586 8.41797 23.0016 8.82617 23.0875 9.18164C23.1773 9.53711 23.3062 9.83789 23.4742 10.084C23.6461 10.3262 23.8531 10.5098 24.0953 10.6348C24.3375 10.7598 24.6148 10.8223 24.9273 10.8223C25.2398 10.8223 25.5172 10.7598 25.7594 10.6348C26.0016 10.5098 26.2047 10.3262 26.3687 10.084C26.5367 9.83789 26.6637 9.53711 26.7496 9.18164C26.8355 8.82617 26.8785 8.41797 26.8785 7.95703ZM35.5375 9.78516C35.5375 9.62109 35.5121 9.47461 35.4613 9.3457C35.4145 9.21289 35.3266 9.09375 35.1977 8.98828C35.0727 8.87891 34.8949 8.77344 34.6645 8.67188C34.4379 8.56641 34.1449 8.45703 33.7855 8.34375C33.3871 8.21875 33.016 8.07812 32.6723 7.92188C32.3285 7.76562 32.0258 7.58398 31.7641 7.37695C31.5063 7.16992 31.3051 6.93164 31.1605 6.66211C31.016 6.38867 30.9438 6.07227 30.9438 5.71289C30.9438 5.36133 31.018 5.04102 31.1664 4.75195C31.3188 4.46289 31.5336 4.21484 31.8109 4.00781C32.0883 3.79688 32.4145 3.63477 32.7895 3.52148C33.1684 3.4082 33.5863 3.35156 34.0434 3.35156C34.6762 3.35156 35.223 3.4668 35.684 3.69727C36.1488 3.92773 36.5082 4.24023 36.7621 4.63477C37.016 5.0293 37.143 5.47266 37.143 5.96484H35.5375C35.5375 5.69922 35.4809 5.46484 35.3676 5.26172C35.2582 5.05859 35.0902 4.89844 34.8637 4.78125C34.641 4.66406 34.3598 4.60547 34.0199 4.60547C33.6918 4.60547 33.4184 4.6543 33.1996 4.75195C32.9848 4.84961 32.8227 4.98242 32.7133 5.15039C32.6078 5.31836 32.5551 5.50586 32.5551 5.71289C32.5551 5.86914 32.5922 6.00977 32.6664 6.13477C32.7406 6.25586 32.852 6.37109 33.0004 6.48047C33.1488 6.58594 33.3324 6.68555 33.5512 6.7793C33.7738 6.86914 34.0316 6.95898 34.3246 7.04883C34.7934 7.18945 35.2035 7.3457 35.5551 7.51758C35.9105 7.68945 36.2055 7.88477 36.4398 8.10352C36.6781 8.32227 36.8559 8.56836 36.973 8.8418C37.0941 9.11523 37.1547 9.42578 37.1547 9.77344C37.1547 10.1406 37.0824 10.4688 36.9379 10.7578C36.7934 11.0469 36.5863 11.293 36.3168 11.4961C36.0473 11.6992 35.723 11.8535 35.3441 11.959C34.9691 12.0645 34.5492 12.1172 34.0844 12.1172C33.6703 12.1172 33.2602 12.0625 32.8539 11.9531C32.4516 11.8398 32.0863 11.6719 31.7582 11.4492C31.4301 11.2227 31.1684 10.9375 30.973 10.5938C30.7777 10.2461 30.6801 9.83984 30.6801 9.375H32.2973C32.2973 9.64453 32.3402 9.875 32.4262 10.0664C32.516 10.2539 32.641 10.4082 32.8012 10.5293C32.9652 10.6465 33.1566 10.7324 33.3754 10.7871C33.5941 10.8418 33.8305 10.8691 34.0844 10.8691C34.4125 10.8691 34.682 10.8242 34.893 10.7344C35.1078 10.6406 35.268 10.5117 35.3734 10.3477C35.4828 10.1836 35.5375 9.99609 35.5375 9.78516ZM45.2512 10.7344V12H40.716V10.7344H45.2512ZM41.2082 3.46875V12H39.5969V3.46875H41.2082ZM44.6594 6.99023V8.22656H40.716V6.99023H44.6594ZM45.2336 3.46875V4.74023H40.716V3.46875H45.2336ZM50.1191 12H48.2793L48.291 10.7344H50.1191C50.6152 10.7344 51.0312 10.625 51.3672 10.4062C51.7031 10.1836 51.957 9.86523 52.1289 9.45117C52.3008 9.0332 52.3867 8.5332 52.3867 7.95117V7.51172C52.3867 7.0625 52.3379 6.66602 52.2402 6.32227C52.1426 5.97852 51.998 5.68945 51.8066 5.45508C51.6191 5.2207 51.3867 5.04297 51.1094 4.92188C50.832 4.80078 50.5137 4.74023 50.1543 4.74023H48.2441V3.46875H50.1543C50.7246 3.46875 51.2441 3.56445 51.7129 3.75586C52.1855 3.94727 52.5938 4.22266 52.9375 4.58203C53.2852 4.9375 53.5508 5.36328 53.7344 5.85938C53.9219 6.35547 54.0156 6.91016 54.0156 7.52344V7.95117C54.0156 8.56055 53.9219 9.11523 53.7344 9.61523C53.5508 10.1113 53.2852 10.5371 52.9375 10.8926C52.5938 11.248 52.1836 11.5215 51.707 11.7129C51.2305 11.9043 50.7012 12 50.1191 12ZM49.1816 3.46875V12H47.5703V3.46875H49.1816Z" fill="#FE5454"/>
</svg>
