<svg width="292" height="95" viewBox="0 0 292 95" fill="none" xmlns="http://www.w3.org/2000/svg">
<path d="M144.5 0L291.5 46.5L158.5 94.5L0 55L144.5 0Z" fill="url(#paint0_diamond_138_751)"/>
<path d="M31.016 60.328C30.968 60.328 30.884 60.34 30.764 60.364C30.644 60.388 30.524 60.4 30.404 60.4C30.284 60.424 30.176 60.436 30.08 60.436C30.008 60.46 29.984 60.472 30.008 60.472H28.244C27.86 60.424 27.536 60.388 27.272 60.364C27.032 60.364 26.816 60.376 26.624 60.4C26.576 60.4 26.528 60.376 26.48 60.328C26.432 60.304 26.396 60.28 26.372 60.256C26.348 60.04 26.336 59.716 26.336 59.284C26.36 58.852 26.372 58.516 26.372 58.276V57.772C26.42 57.364 26.432 57.004 26.408 56.692C26.384 56.356 26.372 55.984 26.372 55.576V54.784C26.492 54.256 26.516 53.704 26.444 53.128C26.396 52.552 26.372 52.024 26.372 51.544V42.364C26.372 42.124 26.312 42.004 26.192 42.004C25.856 41.98 25.592 41.968 25.4 41.968C25.208 41.968 24.944 41.98 24.608 42.004C24.464 42.004 24.212 41.968 23.852 41.896C23.516 41.824 23.288 41.8 23.168 41.824C23.048 41.872 22.796 41.872 22.412 41.824C22.052 41.776 21.812 41.752 21.692 41.752C21.572 41.752 21.464 41.752 21.368 41.752C21.272 41.728 21.176 41.68 21.08 41.608V39.376C21.176 39.328 21.32 39.304 21.512 39.304C21.704 39.304 21.896 39.304 22.088 39.304C22.328 39.304 22.544 39.304 22.736 39.304C22.928 39.304 23.108 39.292 23.276 39.268C23.324 39.268 23.492 39.28 23.78 39.304C24.068 39.328 24.308 39.352 24.5 39.376C24.644 39.328 24.788 39.304 24.932 39.304C25.292 39.28 25.628 39.28 25.94 39.304C26.156 39.328 26.312 39.328 26.408 39.304C26.504 39.28 26.648 39.268 26.84 39.268H27.416L28.388 39.34C28.628 39.34 28.868 39.34 29.108 39.34C29.348 39.316 29.588 39.316 29.828 39.34C30.38 39.388 30.908 39.412 31.412 39.412C31.94 39.388 32.372 39.352 32.708 39.304C32.876 39.304 33.176 39.328 33.608 39.376C34.04 39.424 34.46 39.46 34.868 39.484C35.132 39.508 35.348 39.508 35.516 39.484C35.684 39.46 35.828 39.46 35.948 39.484V41.14C35.948 41.236 35.96 41.296 35.984 41.32C36.008 41.344 35.996 41.452 35.948 41.644C35.924 41.74 35.828 41.8 35.66 41.824C35.492 41.824 35.36 41.824 35.264 41.824C34.64 41.92 34.064 41.956 33.536 41.932C33.032 41.908 32.54 41.896 32.06 41.896C31.868 41.896 31.712 41.896 31.592 41.896C31.496 41.896 31.376 41.908 31.232 41.932V42.76C31.232 42.952 31.22 43.24 31.196 43.624C31.196 44.008 31.196 44.308 31.196 44.524C31.196 44.62 31.196 44.692 31.196 44.74C31.196 44.788 31.184 44.86 31.16 44.956C31.16 45.028 31.148 45.148 31.124 45.316C31.1 45.46 31.052 45.676 30.98 45.964C30.98 46.372 30.98 46.72 30.98 47.008C30.98 47.296 30.98 47.56 30.98 47.8C31.004 48.04 31.016 48.28 31.016 48.52C31.016 48.736 31.016 49 31.016 49.312V49.672C30.92 50.08 30.896 50.488 30.944 50.896C30.992 51.304 31.016 51.712 31.016 52.12V60.328ZM41.4068 46.432C41.5748 46.384 41.7788 46.312 42.0188 46.216C42.2588 46.12 42.4988 46.072 42.7388 46.072C43.0508 46.072 43.3388 46.072 43.6028 46.072C43.8668 46.048 44.1548 46.036 44.4668 46.036C44.7068 46.036 44.9348 46.048 45.1508 46.072C45.3908 46.072 45.6068 46.108 45.7988 46.18C45.8468 46.18 45.9068 46.192 45.9788 46.216C46.0508 46.24 46.1468 46.312 46.2668 46.432C46.5068 46.504 46.7348 46.624 46.9508 46.792C47.1668 46.96 47.3588 47.164 47.5268 47.404C47.7188 47.644 47.8868 47.896 48.0308 48.16C48.1988 48.4 48.3428 48.64 48.4628 48.88C48.5828 49.072 48.6548 49.324 48.6788 49.636C48.7268 49.948 48.7868 50.2 48.8588 50.392C48.8588 50.728 48.8708 51.052 48.8948 51.364C48.9428 51.676 48.9668 52 48.9668 52.336C48.9668 52.888 48.9548 53.416 48.9308 53.92C48.9068 54.424 48.8948 54.952 48.8948 55.504L48.8228 56.692C48.8228 56.788 48.7748 56.956 48.6788 57.196C48.5828 57.436 48.5228 57.616 48.4988 57.736C48.4268 57.976 48.3308 58.264 48.2108 58.6C48.0908 58.912 48.0068 59.092 47.9588 59.14C47.8388 59.26 47.7548 59.368 47.7068 59.464C47.6588 59.56 47.6108 59.656 47.5628 59.752C47.5388 59.848 47.4908 59.932 47.4188 60.004C47.3708 60.076 47.2748 60.148 47.1308 60.22C47.0108 60.268 46.8668 60.34 46.6988 60.436C46.5308 60.556 46.3748 60.664 46.2308 60.76C46.1108 60.808 46.0508 60.844 46.0508 60.868C46.0508 60.916 45.9668 60.964 45.7988 61.012L45.1508 61.156C44.8628 61.204 44.6228 61.216 44.4308 61.192C44.2628 61.168 44.0708 61.156 43.8548 61.156C43.1828 61.156 42.5108 61.024 41.8388 60.76C41.6228 60.76 41.4068 60.712 41.1908 60.616C40.9988 60.52 40.8548 60.412 40.7588 60.292C40.6388 60.196 40.5188 60.088 40.3988 59.968C40.2788 59.872 40.1588 59.764 40.0388 59.644C39.8468 59.428 39.6908 59.212 39.5708 58.996C39.4508 58.78 39.3308 58.552 39.2108 58.312C39.0908 58.048 38.9588 57.784 38.8148 57.52C38.6708 57.232 38.5748 56.92 38.5268 56.584C38.4788 56.032 38.4308 55.528 38.3828 55.072C38.3588 54.616 38.3468 54.16 38.3468 53.704V52.228C38.3228 52.18 38.3108 52.084 38.3108 51.94C38.3108 51.796 38.3228 51.7 38.3468 51.652C38.3468 51.532 38.3468 51.412 38.3468 51.292C38.3708 51.148 38.3948 51.016 38.4188 50.896C38.4428 50.704 38.4548 50.512 38.4548 50.32C38.4548 50.128 38.5148 49.936 38.6348 49.744C38.6108 49.792 38.6228 49.756 38.6708 49.636C38.7428 49.492 38.8148 49.348 38.8868 49.204C38.9588 49.036 39.0188 48.892 39.0668 48.772C39.1148 48.652 39.1388 48.604 39.1388 48.628L39.3908 48.16C39.4628 48.088 39.5348 48.004 39.6068 47.908C39.6788 47.812 39.7748 47.704 39.8948 47.584C40.0388 47.464 40.2188 47.308 40.4348 47.116C40.6748 46.924 40.9988 46.696 41.4068 46.432ZM44.0348 52.408C43.9388 52.408 43.8428 52.456 43.7468 52.552C43.6748 52.648 43.6268 52.732 43.6028 52.804C43.4348 53.164 43.3508 53.464 43.3508 53.704C43.3508 54.352 43.5788 54.784 44.0348 55C44.1548 55 44.2508 54.964 44.3228 54.892C44.4188 54.796 44.4668 54.7 44.4668 54.604C44.4668 54.364 44.4908 54.088 44.5388 53.776C44.6108 53.464 44.5868 53.14 44.4668 52.804C44.3468 52.684 44.2748 52.588 44.2508 52.516C44.2268 52.444 44.1548 52.408 44.0348 52.408ZM62.9424 55.72C63.2304 55.984 63.5184 56.236 63.8064 56.476C64.0944 56.692 64.3464 56.908 64.5624 57.124C64.7064 57.244 64.8984 57.412 65.1384 57.628C65.3784 57.82 65.5944 57.952 65.7864 58.024C65.9064 58.144 66.0384 58.252 66.1824 58.348C66.3504 58.444 66.4824 58.54 66.5784 58.636C66.6984 58.756 66.8184 58.876 66.9384 58.996C67.0584 59.092 67.1544 59.212 67.2264 59.356C67.2024 59.404 67.1784 59.464 67.1544 59.536C67.1064 59.656 67.0464 59.752 66.9744 59.824C66.7824 60.016 66.6264 60.196 66.5064 60.364C66.3864 60.556 66.2664 60.712 66.1464 60.832L65.8584 61.12C65.8104 61.168 65.7864 61.204 65.7864 61.228C65.6664 61.228 65.5584 61.18 65.4624 61.084C65.3664 60.988 65.2584 60.892 65.1384 60.796C64.8264 60.604 64.6104 60.448 64.4904 60.328C64.3944 60.232 64.1904 60.136 63.8784 60.04C63.8064 59.992 63.6744 59.92 63.4824 59.824C63.3144 59.728 63.1944 59.656 63.1224 59.608C62.8104 59.512 62.5104 59.356 62.2224 59.14C61.9344 58.924 61.6224 58.72 61.2864 58.528L58.4784 56.692C58.2384 56.572 58.0104 56.44 57.7944 56.296C57.6024 56.152 57.3864 56.02 57.1464 55.9C56.9784 55.804 56.8344 55.72 56.7144 55.648C56.6184 55.552 56.4984 55.444 56.3544 55.324C56.1624 55.204 55.9584 55.084 55.7424 54.964C55.5264 54.844 55.3224 54.748 55.1304 54.676L54.8424 54.532V54.748C54.8424 54.94 54.8184 55.12 54.7704 55.288C54.7464 55.456 54.7344 55.6 54.7344 55.72C54.7104 56.344 54.6744 56.968 54.6264 57.592C54.5784 58.192 54.5544 58.804 54.5544 59.428C54.5544 59.62 54.5424 59.812 54.5184 60.004C54.5184 60.196 54.4584 60.388 54.3384 60.58H54.1584C53.8704 60.58 53.6304 60.568 53.4384 60.544C53.2464 60.544 53.0184 60.556 52.7544 60.58C52.5624 60.604 52.3944 60.604 52.2504 60.58C52.1064 60.58 51.9384 60.58 51.7464 60.58C51.7224 60.508 51.6864 60.448 51.6384 60.4C51.5904 60.352 51.5664 60.292 51.5664 60.22C51.6144 59.788 51.6024 59.116 51.5304 58.204C51.4824 57.292 51.4584 56.26 51.4584 55.108C51.4584 54.796 51.4584 54.496 51.4584 54.208C51.4824 53.92 51.4824 53.62 51.4584 53.308C51.4104 52.924 51.3864 52.54 51.3864 52.156C51.3864 51.772 51.3984 51.376 51.4224 50.968V49.96C51.4224 49.6 51.4104 49.24 51.3864 48.88C51.3624 48.496 51.3504 48.112 51.3504 47.728C51.3504 47.536 51.3504 47.344 51.3504 47.152C51.3744 46.96 51.3984 46.768 51.4224 46.576C51.4224 46.384 51.3984 46.18 51.3504 45.964C51.3264 45.748 51.3384 45.544 51.3864 45.352C51.3864 45.28 51.3864 45.064 51.3864 44.704C51.4104 44.344 51.4224 43.948 51.4224 43.516C51.4224 43.084 51.4104 42.664 51.3864 42.256C51.3864 41.824 51.3864 41.5 51.3864 41.284L51.3144 39.448C51.4344 39.328 51.5064 39.268 51.5304 39.268C51.5784 39.244 51.6624 39.232 51.7824 39.232C51.8304 39.232 51.8664 39.244 51.8904 39.268C51.9144 39.268 51.9384 39.268 51.9624 39.268C51.9864 39.268 52.1184 39.28 52.3584 39.304C52.5984 39.304 52.8624 39.316 53.1504 39.34C53.4384 39.34 53.7024 39.352 53.9424 39.376C54.2064 39.376 54.3504 39.388 54.3744 39.412C54.3984 39.604 54.4104 39.76 54.4104 39.88C54.4104 40 54.3984 40.12 54.3744 40.24C54.3744 40.36 54.3624 40.504 54.3384 40.672C54.3384 40.816 54.3384 41.008 54.3384 41.248V41.932C54.2424 42.604 54.1824 43.288 54.1584 43.984C54.1584 44.656 54.1584 45.316 54.1584 45.964C54.1344 46.684 54.0984 47.212 54.0504 47.548C54.0264 47.86 54.0144 48.232 54.0144 48.664V49.42C54.0144 49.54 54.0024 49.636 53.9784 49.708C53.9784 49.78 54.0384 49.816 54.1584 49.816L54.3384 49.636C54.4584 49.516 54.5784 49.384 54.6984 49.24C54.8184 49.072 54.9264 48.94 55.0224 48.844C55.0464 48.796 55.1184 48.712 55.2384 48.592C55.3584 48.448 55.4424 48.352 55.4904 48.304C55.7544 47.872 55.9824 47.56 56.1744 47.368C56.3904 47.176 56.5944 46.912 56.7864 46.576C56.9304 46.36 57.0624 46.144 57.1824 45.928C57.3264 45.712 57.4944 45.508 57.6864 45.316C57.6864 45.316 57.7104 45.292 57.7584 45.244C57.8784 44.98 58.0224 44.74 58.1904 44.524C58.3584 44.284 58.5264 44.032 58.6944 43.768C58.8864 43.504 59.0664 43.228 59.2344 42.94C59.4264 42.652 59.6184 42.376 59.8104 42.112L61.9344 38.98L62.3664 38.332C62.4144 38.26 62.4864 38.176 62.5824 38.08C62.7024 37.984 62.7984 37.912 62.8704 37.864C62.9664 37.936 63.1104 38.032 63.3024 38.152C63.4944 38.272 63.7224 38.428 63.9864 38.62C64.1784 38.74 64.3584 38.872 64.5264 39.016C64.7184 39.136 64.8744 39.34 64.9944 39.628C64.9944 39.7 64.9104 39.868 64.7424 40.132C64.5744 40.396 64.3944 40.684 64.2024 40.996C64.0104 41.284 63.8304 41.56 63.6624 41.824C63.4944 42.064 63.3984 42.208 63.3744 42.256C63.2304 42.496 63.0984 42.748 62.9784 43.012C62.8824 43.252 62.7744 43.432 62.6544 43.552C62.4624 43.792 62.2824 44.056 62.1144 44.344C61.9704 44.608 61.8144 44.872 61.6464 45.136C61.3824 45.544 61.0944 45.928 60.7824 46.288C60.4944 46.648 60.2064 47.008 59.9184 47.368C59.6544 47.728 59.3904 48.076 59.1264 48.412C58.8624 48.748 58.6944 48.94 58.6224 48.988C58.4544 49.18 58.2864 49.36 58.1184 49.528C57.9504 49.672 57.7824 49.828 57.6144 49.996C57.4464 50.164 57.3024 50.344 57.1824 50.536C57.0624 50.704 56.9424 50.86 56.8224 51.004C56.9184 51.076 56.9784 51.148 57.0024 51.22C57.0504 51.292 57.1344 51.364 57.2544 51.436C57.5424 51.628 57.8424 51.868 58.1544 52.156C58.4664 52.444 58.7664 52.684 59.0544 52.876C59.4624 53.092 59.8344 53.344 60.1704 53.632C60.5064 53.896 60.8784 54.196 61.2864 54.532C61.3824 54.652 61.5264 54.76 61.7184 54.856C61.9344 54.952 62.1384 55.108 62.3304 55.324C62.4264 55.42 62.5224 55.504 62.6184 55.576C62.7384 55.624 62.8464 55.672 62.9424 55.72ZM76.4173 58.6C76.4173 58.864 76.4053 59.14 76.3813 59.428C76.3813 59.716 76.3933 59.992 76.4173 60.256C76.4173 60.4 76.4173 60.604 76.4173 60.868C76.4173 61.156 76.4053 61.372 76.3813 61.516C76.4053 61.612 76.3813 61.696 76.3093 61.768C76.2373 61.864 76.1773 61.936 76.1293 61.984H75.1933C75.0733 61.984 74.9293 61.972 74.7613 61.948C74.6173 61.948 74.4853 61.948 74.3653 61.948C74.2693 61.996 74.1373 62.02 73.9693 62.02C73.8013 62.02 73.6213 62.02 73.4293 62.02C73.2613 62.02 73.0933 62.008 72.9253 61.984C72.7813 61.984 72.6973 61.984 72.6733 61.984C72.5533 61.864 72.4813 61.78 72.4573 61.732C72.4573 61.708 72.4573 61.636 72.4573 61.516V58.06L72.3853 55.936L72.4573 53.524L72.4213 51.436L72.2773 49.708C71.9893 49.708 71.6413 49.72 71.2333 49.744C70.8253 49.768 70.5133 49.756 70.2973 49.708C69.8893 49.636 69.5653 49.624 69.3253 49.672C69.1093 49.696 68.8333 49.708 68.4973 49.708V47.404H68.7133C68.8333 47.404 68.9293 47.404 69.0013 47.404C69.0973 47.38 69.1693 47.38 69.2173 47.404C69.3373 47.5 69.5053 47.536 69.7213 47.512C69.9613 47.464 70.0693 47.416 70.0453 47.368C70.3093 47.344 70.4653 47.332 70.5133 47.332C70.5853 47.332 70.7293 47.332 70.9453 47.332C71.1373 47.332 71.4133 47.344 71.7733 47.368C72.1573 47.368 72.4093 47.356 72.5293 47.332C72.5293 47.332 72.5293 47.26 72.5293 47.116C72.5293 46.972 72.5293 46.804 72.5293 46.612C72.5293 46.42 72.5293 46.216 72.5293 46C72.5293 45.784 72.5293 45.616 72.5293 45.496C72.5773 45.04 72.6013 44.632 72.6013 44.272C72.6253 43.888 72.6493 43.456 72.6733 42.976C72.6973 42.64 72.7093 42.316 72.7093 42.004C72.7093 41.692 72.7093 41.368 72.7093 41.032C72.7093 40.696 72.7213 40.288 72.7453 39.808C72.7933 39.304 72.8053 38.86 72.7813 38.476C72.7813 38.356 72.7573 38.284 72.7093 38.26C72.6853 38.212 72.6733 38.128 72.6733 38.008C72.6733 37.888 72.6853 37.804 72.7093 37.756C72.7333 37.684 72.8053 37.648 72.9253 37.648C73.1413 37.648 73.3693 37.66 73.6093 37.684C73.8493 37.708 74.0773 37.72 74.2933 37.72C74.6533 37.72 74.9773 37.72 75.2653 37.72C75.5773 37.72 75.8293 37.732 76.0213 37.756C76.3813 37.804 76.6573 37.852 76.8493 37.9C76.8493 37.9 76.8493 37.96 76.8493 38.08C76.8493 38.176 76.8493 38.308 76.8493 38.476C76.8493 38.62 76.8373 38.776 76.8133 38.944C76.8133 39.112 76.8133 39.268 76.8133 39.412C76.7893 40.012 76.7773 40.54 76.7773 40.996C76.7773 41.428 76.7893 41.944 76.8133 42.544C76.8133 42.808 76.8013 43.084 76.7773 43.372C76.7773 43.66 76.7893 43.936 76.8133 44.2C76.8133 44.272 76.8013 44.428 76.7773 44.668C76.7773 44.908 76.7653 45.172 76.7413 45.46C76.7173 45.724 76.6933 45.976 76.6693 46.216C76.6453 46.456 76.6333 46.612 76.6333 46.684C76.6333 46.804 76.6573 46.912 76.7053 47.008C76.7533 47.104 76.8013 47.152 76.8493 47.152C76.9693 47.152 77.1253 47.176 77.3173 47.224C77.5093 47.248 77.6653 47.26 77.7853 47.26C77.9053 47.26 78.0253 47.284 78.1453 47.332C78.2893 47.356 78.4813 47.368 78.7213 47.368C78.9373 47.368 79.1533 47.38 79.3693 47.404C79.6093 47.404 79.8613 47.404 80.1253 47.404C80.1733 47.404 80.2213 47.416 80.2693 47.44C80.3173 47.44 80.3653 47.44 80.4133 47.44H80.5573C80.6773 47.8 80.7373 48.208 80.7373 48.664C80.7373 49.12 80.6773 49.468 80.5573 49.708H80.3413C79.8613 49.756 79.3933 49.804 78.9373 49.852C78.4813 49.876 78.0133 49.888 77.5333 49.888C77.4133 49.888 77.2693 49.9 77.1013 49.924C76.9333 49.924 76.7893 49.924 76.6693 49.924C76.6693 49.972 76.6573 50.032 76.6333 50.104C76.6333 50.152 76.6333 50.2 76.6333 50.248V50.392V50.716C76.6333 50.932 76.6333 51.136 76.6333 51.328C76.6573 51.496 76.6573 51.676 76.6333 51.868L76.7053 53.776L76.5613 55.396C76.5613 55.516 76.5493 55.732 76.5253 56.044C76.5253 56.332 76.5133 56.656 76.4893 57.016C76.4893 57.352 76.4773 57.676 76.4533 57.988C76.4293 58.276 76.4173 58.48 76.4173 58.6ZM98.2651 43.984C98.3851 44.56 98.5171 45.16 98.6611 45.784C98.8291 46.384 98.9131 46.996 98.9131 47.62C99.0091 47.908 99.0571 48.256 99.0571 48.664C99.0811 49.048 99.0931 49.372 99.0931 49.636C99.0931 49.948 99.0811 50.224 99.0571 50.464C99.0571 50.68 99.0091 50.956 98.9131 51.292C98.9131 51.58 98.9011 51.916 98.8771 52.3C98.8531 52.684 98.7691 53.02 98.6251 53.308C98.5531 53.476 98.5171 53.692 98.5171 53.956C98.5171 54.22 98.4571 54.484 98.3371 54.748L97.9051 55.756C97.7371 56.164 97.5451 56.572 97.3291 56.98C97.1371 57.364 96.9451 57.688 96.7531 57.952C96.7051 58.048 96.6091 58.168 96.4651 58.312C96.3451 58.456 96.2131 58.612 96.0691 58.78C95.9251 58.948 95.7691 59.104 95.6011 59.248C95.4571 59.392 95.3371 59.512 95.2411 59.608C95.0251 59.824 94.8091 60.016 94.5931 60.184C94.3771 60.376 94.1251 60.532 93.8371 60.652C93.7411 60.7 93.6451 60.736 93.5491 60.76C93.4531 60.808 93.3451 60.844 93.2251 60.868C92.9131 60.916 92.6251 60.952 92.3611 60.976C92.0971 61.024 91.8331 61.06 91.5691 61.084C91.4011 61.084 91.1731 61.084 90.8851 61.084C90.6211 61.084 90.3451 61.072 90.0571 61.048C89.7691 61.048 89.5051 61.036 89.2651 61.012C89.0251 60.988 88.8691 60.964 88.7971 60.94C88.3651 60.772 87.9571 60.604 87.5731 60.436C87.2131 60.268 86.8771 60.016 86.5651 59.68L85.0531 58.42C84.5251 57.988 84.1051 57.496 83.7931 56.944C83.4811 56.368 83.2291 55.768 83.0371 55.144C82.9171 54.856 82.8451 54.592 82.8211 54.352C82.7971 54.112 82.7251 53.896 82.6051 53.704C82.4851 53.008 82.3771 52.372 82.2811 51.796C82.2091 51.22 82.1851 50.62 82.2091 49.996C82.2331 49.708 82.2451 49.384 82.2451 49.024C82.2451 48.664 82.2691 48.316 82.3171 47.98C82.3411 47.908 82.3771 47.728 82.4251 47.44C82.4731 47.152 82.5211 46.852 82.5691 46.54C82.6171 46.204 82.6651 45.892 82.7131 45.604C82.7611 45.292 82.7971 45.1 82.8211 45.028C83.0371 44.332 83.2531 43.708 83.4691 43.156C83.7091 42.58 84.0211 42.076 84.4051 41.644L85.4491 40.492C85.5691 40.372 85.7131 40.264 85.8811 40.168C86.0731 40.048 86.2411 39.94 86.3851 39.844L87.1771 39.376C87.4171 39.208 87.7651 39.064 88.2211 38.944C88.6771 38.8 89.0611 38.704 89.3731 38.656C89.6851 38.608 90.0211 38.572 90.3811 38.548C90.7651 38.524 91.1491 38.512 91.5331 38.512C91.8691 38.512 92.1451 38.548 92.3611 38.62C92.6011 38.692 92.8651 38.776 93.1531 38.872C93.2491 38.896 93.3931 38.944 93.5851 39.016C93.7771 39.064 93.9811 39.148 94.1971 39.268C94.4371 39.364 94.6771 39.496 94.9171 39.664C95.1571 39.808 95.3611 39.964 95.5291 40.132C95.6731 40.3 95.8771 40.48 96.1411 40.672C96.4291 40.84 96.6331 41.032 96.7531 41.248C96.8011 41.344 96.8611 41.44 96.9331 41.536C97.0291 41.632 97.1131 41.728 97.1851 41.824C97.3771 42.112 97.6051 42.472 97.8691 42.904C98.1331 43.336 98.2651 43.696 98.2651 43.984ZM90.7411 52.084C90.8371 52.084 90.8971 52.06 90.9211 52.012C90.9451 51.964 91.0171 51.928 91.1371 51.904C91.3051 51.88 91.4251 51.808 91.4971 51.688C91.5691 51.544 91.6651 51.412 91.7851 51.292C91.8811 50.764 91.9291 50.284 91.9291 49.852C91.9531 49.42 91.9651 48.94 91.9651 48.412C91.9651 48.22 91.9171 48.04 91.8211 47.872C91.7251 47.68 91.5691 47.536 91.3531 47.44C91.1371 47.32 90.9691 47.26 90.8491 47.26C90.7291 47.26 90.5731 47.32 90.3811 47.44C90.3331 47.44 90.2851 47.452 90.2371 47.476C90.1891 47.5 90.1411 47.524 90.0931 47.548L89.9491 47.62C89.8291 47.836 89.7211 48.04 89.6251 48.232C89.5291 48.424 89.4811 48.616 89.4811 48.808V50.608C89.5291 50.992 89.6251 51.292 89.7691 51.508C89.9131 51.724 90.1171 51.916 90.3811 52.084H90.7411ZM107.833 49.78L108.625 48.988L109.849 47.8C109.993 47.632 110.137 47.5 110.281 47.404C110.425 47.308 110.665 47.284 111.001 47.332C111.241 47.332 111.505 47.356 111.793 47.404C112.081 47.452 112.405 47.476 112.765 47.476C112.813 47.476 112.957 47.488 113.197 47.512C113.461 47.512 113.593 47.524 113.593 47.548C113.593 47.668 113.557 47.764 113.485 47.836L111.937 49.492C111.889 49.54 111.769 49.66 111.577 49.852C111.385 50.02 111.181 50.212 110.965 50.428C110.749 50.62 110.545 50.812 110.353 51.004C110.161 51.172 110.041 51.292 109.993 51.364C109.801 51.58 109.585 51.784 109.345 51.976C109.129 52.168 108.925 52.36 108.733 52.552C108.517 52.768 108.313 52.972 108.121 53.164C107.929 53.356 107.701 53.548 107.437 53.74L106.825 54.064C106.873 54.16 107.017 54.34 107.257 54.604C107.521 54.868 107.797 55.132 108.085 55.396C108.349 55.66 108.601 55.888 108.841 56.08C109.081 56.248 109.225 56.368 109.273 56.44L110.569 57.772L111.829 58.96C111.949 59.128 112.129 59.368 112.369 59.68C112.633 59.992 112.933 60.316 113.269 60.652C113.389 60.772 113.509 60.892 113.629 61.012C113.773 61.132 113.905 61.252 114.025 61.372C114.217 61.564 114.385 61.744 114.529 61.912C114.673 62.08 114.781 62.224 114.853 62.344C114.853 62.416 114.685 62.428 114.349 62.38C114.157 62.332 113.977 62.296 113.809 62.272C113.665 62.272 113.497 62.26 113.305 62.236C113.065 62.212 112.825 62.2 112.585 62.2C112.345 62.224 112.105 62.212 111.865 62.164C111.673 62.116 111.493 62.104 111.325 62.128C111.157 62.152 110.989 62.164 110.821 62.164C110.677 62.164 110.557 62.128 110.461 62.056C110.389 62.008 110.341 61.96 110.317 61.912C110.173 61.744 110.029 61.576 109.885 61.408C109.765 61.264 109.633 61.12 109.489 60.976C109.345 60.808 109.177 60.604 108.985 60.364C108.817 60.124 108.661 59.932 108.517 59.788C108.205 59.452 107.917 59.188 107.653 58.996C107.389 58.78 107.113 58.528 106.825 58.24C106.609 57.88 106.333 57.568 105.997 57.304C105.685 57.04 105.361 56.728 105.025 56.368C105.049 56.488 105.049 56.62 105.025 56.764C105.025 56.884 105.025 57.004 105.025 57.124C105.025 57.22 105.025 57.388 105.025 57.628C105.049 57.868 105.061 58.132 105.061 58.42C105.085 58.684 105.097 58.948 105.097 59.212C105.121 59.452 105.121 59.62 105.097 59.716C105.097 59.932 105.085 60.184 105.061 60.472C105.061 60.784 105.049 60.964 105.025 61.012C104.977 61.06 104.869 61.072 104.701 61.048C104.557 61.024 104.425 61.012 104.305 61.012C103.993 61.012 103.669 61.012 103.333 61.012C103.021 61.012 102.733 61.048 102.469 61.12C102.349 61.168 102.229 61.18 102.109 61.156C101.989 61.156 101.869 61.156 101.749 61.156C101.749 61.06 101.737 60.844 101.713 60.508C101.713 60.172 101.701 59.824 101.677 59.464C101.677 59.08 101.677 58.732 101.677 58.42C101.677 58.084 101.689 57.868 101.713 57.772L101.605 55.216C101.605 55.024 101.569 54.832 101.497 54.64C101.449 54.424 101.437 54.22 101.461 54.028C101.461 53.692 101.473 53.356 101.497 53.02C101.545 52.684 101.557 52.348 101.533 52.012C101.509 51.676 101.509 51.34 101.533 51.004C101.557 50.644 101.581 50.296 101.605 49.96V48.556C101.605 48.196 101.593 47.848 101.569 47.512C101.569 47.176 101.557 46.828 101.533 46.468C101.485 46.036 101.485 45.604 101.533 45.172C101.581 44.716 101.617 44.26 101.641 43.804L101.713 42.616V40.06C101.713 39.868 101.701 39.664 101.677 39.448C101.653 39.208 101.653 38.968 101.677 38.728V38.08C101.677 37.96 101.725 37.852 101.821 37.756C101.917 37.636 102.013 37.576 102.109 37.576C102.469 37.576 102.769 37.576 103.009 37.576C103.249 37.552 103.537 37.54 103.873 37.54C104.017 37.54 104.137 37.528 104.233 37.504C104.305 37.648 104.341 37.792 104.341 37.936C104.317 38.344 104.317 38.788 104.341 39.268C104.389 39.748 104.413 40.192 104.413 40.6L104.485 41.608V42.508C104.485 42.652 104.473 42.868 104.449 43.156C104.449 43.42 104.449 43.708 104.449 44.02C104.449 44.332 104.449 44.632 104.449 44.92C104.449 45.184 104.461 45.376 104.485 45.496C104.485 45.808 104.485 46.12 104.485 46.432C104.509 46.72 104.533 47.02 104.557 47.332C104.557 47.452 104.557 47.644 104.557 47.908C104.581 48.172 104.593 48.46 104.593 48.772C104.593 49.06 104.593 49.336 104.593 49.6C104.593 49.864 104.593 50.056 104.593 50.176L104.773 51.724V52.192C105.109 51.952 105.397 51.736 105.637 51.544C105.877 51.328 106.129 51.124 106.393 50.932L107.833 49.78ZM141.933 39.7C142.485 39.748 142.977 39.784 143.409 39.808C143.841 39.832 144.345 39.844 144.921 39.844C145.041 39.844 145.149 39.856 145.245 39.88C145.341 39.88 145.437 39.88 145.533 39.88H146.505C146.625 39.88 146.697 39.892 146.721 39.916C146.745 39.916 146.757 39.976 146.757 40.096C146.757 40.216 146.745 40.372 146.721 40.564C146.697 40.756 146.625 40.948 146.505 41.14L144.921 45.352C144.873 45.472 144.813 45.64 144.741 45.856C144.669 46.048 144.585 46.264 144.489 46.504C144.417 46.744 144.333 46.972 144.237 47.188C144.165 47.404 144.117 47.572 144.093 47.692C144.021 47.764 143.913 47.956 143.769 48.268C143.649 48.556 143.505 48.88 143.337 49.24C143.193 49.576 143.049 49.9 142.905 50.212C142.785 50.5 142.689 50.692 142.617 50.788C142.545 50.932 142.473 51.124 142.401 51.364C142.353 51.58 142.281 51.82 142.185 52.084C141.969 52.54 141.729 53.068 141.465 53.668C141.225 54.268 141.033 54.736 140.889 55.072C140.817 55.168 140.745 55.324 140.673 55.54C140.601 55.732 140.517 55.936 140.421 56.152C140.349 56.368 140.277 56.584 140.205 56.8C140.133 56.992 140.073 57.136 140.025 57.232C139.881 57.496 139.761 57.784 139.665 58.096C139.593 58.384 139.497 58.66 139.377 58.924C139.281 59.164 139.185 59.428 139.089 59.716C139.017 60.004 138.945 60.256 138.873 60.472H138.297C138.177 60.472 138.069 60.46 137.973 60.436C137.877 60.412 137.697 60.424 137.433 60.472C137.241 60.472 137.001 60.484 136.713 60.508C136.425 60.532 136.221 60.52 136.101 60.472H134.841C134.745 60.472 134.661 60.436 134.589 60.364C134.541 60.34 134.493 60.304 134.445 60.256C134.469 60.112 134.409 59.908 134.265 59.644C134.145 59.404 134.061 59.14 134.013 58.852C133.893 58.636 133.821 58.42 133.797 58.204C133.773 57.988 133.713 57.784 133.617 57.592C133.497 57.112 133.365 56.668 133.221 56.26C133.101 55.828 132.981 55.42 132.861 55.036C132.669 54.508 132.489 53.992 132.321 53.488C132.177 52.96 132.009 52.444 131.817 51.94C131.721 51.58 131.601 51.196 131.457 50.788C131.313 50.356 131.193 50.02 131.097 49.78C131.097 49.756 131.085 49.744 131.061 49.744C131.061 49.72 131.061 49.696 131.061 49.672C131.037 49.648 131.025 49.624 131.025 49.6C130.977 49.6 130.941 49.648 130.917 49.744C130.917 49.816 130.893 49.876 130.845 49.924C130.845 49.9 130.809 49.96 130.737 50.104C130.689 50.248 130.617 50.428 130.521 50.644C130.425 50.86 130.341 51.076 130.269 51.292C130.197 51.508 130.149 51.664 130.125 51.76C130.005 52.336 129.825 52.96 129.585 53.632C129.369 54.304 129.189 54.904 129.045 55.432C128.877 55.696 128.745 56.02 128.649 56.404C128.553 56.764 128.469 57.112 128.397 57.448C128.325 57.76 128.241 58.084 128.145 58.42C128.049 58.732 127.929 58.996 127.785 59.212C127.785 59.212 127.761 59.284 127.713 59.428C127.665 59.548 127.605 59.68 127.533 59.824C127.485 59.968 127.425 60.1 127.353 60.22C127.305 60.364 127.281 60.448 127.281 60.472H123.825C123.705 60.472 123.585 60.424 123.465 60.328C123.369 60.256 123.321 60.16 123.321 60.04L123.033 58.888C122.985 58.768 122.913 58.588 122.817 58.348C122.721 58.108 122.625 57.868 122.529 57.628C122.457 57.364 122.385 57.124 122.313 56.908C122.241 56.668 122.193 56.488 122.169 56.368C122.049 56.08 121.953 55.816 121.881 55.576C121.833 55.312 121.749 55.048 121.629 54.784C121.581 54.616 121.509 54.412 121.413 54.172C121.341 53.932 121.257 53.692 121.161 53.452C121.065 53.188 120.981 52.948 120.909 52.732C120.861 52.516 120.825 52.336 120.801 52.192C120.777 52 120.729 51.832 120.657 51.688C120.609 51.544 120.549 51.388 120.477 51.22C120.381 51.028 120.345 50.908 120.369 50.86C120.369 50.86 120.309 50.728 120.189 50.464C120.093 50.2 119.985 49.912 119.865 49.6C119.745 49.264 119.625 48.952 119.505 48.664C119.409 48.376 119.361 48.184 119.361 48.088C119.289 47.752 119.169 47.392 119.001 47.008C118.833 46.6 118.725 46.228 118.677 45.892C118.629 45.676 118.557 45.532 118.461 45.46L118.065 44.488L117.885 44.2C117.837 44.032 117.765 43.792 117.669 43.48C117.573 43.168 117.465 42.844 117.345 42.508C117.225 42.172 117.105 41.86 116.985 41.572C116.889 41.284 116.805 41.068 116.733 40.924C116.613 40.828 116.541 40.696 116.517 40.528C116.493 40.36 116.421 40.216 116.301 40.096C116.301 39.976 116.301 39.916 116.301 39.916C116.325 39.892 116.397 39.88 116.517 39.88C116.757 39.832 116.985 39.832 117.201 39.88C117.441 39.904 117.681 39.904 117.921 39.88C118.281 39.856 118.737 39.88 119.289 39.952C119.841 40.024 120.345 40.084 120.801 40.132C120.897 40.132 120.981 40.192 121.053 40.312C121.125 40.384 121.161 40.456 121.161 40.528C121.161 40.648 121.185 40.792 121.233 40.96C121.305 41.104 121.365 41.248 121.413 41.392C121.557 41.992 121.701 42.628 121.845 43.3C121.989 43.948 122.133 44.512 122.277 44.992C122.349 45.112 122.433 45.316 122.529 45.604C122.625 45.892 122.709 46.204 122.781 46.54C122.853 46.876 122.913 47.188 122.961 47.476C123.033 47.74 123.081 47.908 123.105 47.98C123.249 48.268 123.357 48.556 123.429 48.844C123.525 49.132 123.621 49.408 123.717 49.672C123.741 49.72 123.777 49.804 123.825 49.924C123.873 50.044 123.921 50.176 123.969 50.32C124.041 50.44 124.089 50.56 124.113 50.68C124.161 50.8 124.185 50.872 124.185 50.896C124.377 51.424 124.533 51.904 124.653 52.336C124.797 52.768 124.965 53.188 125.157 53.596C125.397 53.98 125.553 54.352 125.625 54.712C125.721 55.072 125.865 55.408 126.057 55.72C126.057 55.792 126.081 55.852 126.129 55.9C126.153 55.924 126.165 55.948 126.165 55.972C126.261 55.972 126.345 55.912 126.417 55.792C126.777 54.952 127.065 54.076 127.281 53.164C127.497 52.228 127.785 51.304 128.145 50.392C128.337 49.768 128.529 49.144 128.721 48.52C128.913 47.872 129.069 47.188 129.189 46.468C129.237 46.276 129.273 46.12 129.297 46C129.321 45.88 129.369 45.784 129.441 45.712C129.633 45.64 129.813 45.628 129.981 45.676C130.149 45.7 130.281 45.712 130.377 45.712H131.817C131.937 45.688 132.057 45.688 132.177 45.712C132.297 45.736 132.381 45.844 132.429 46.036C132.693 46.612 132.885 47.2 133.005 47.8C133.125 48.4 133.269 49 133.437 49.6C133.629 50.008 133.785 50.452 133.905 50.932C134.049 51.388 134.205 51.796 134.373 52.156C134.541 52.588 134.673 53.044 134.769 53.524C134.865 53.98 134.973 54.424 135.093 54.856C135.261 55.192 135.369 55.564 135.417 55.972C135.465 56.356 135.585 56.644 135.777 56.836C135.921 56.836 136.017 56.8 136.065 56.728C136.089 56.704 136.101 56.668 136.101 56.62C136.053 56.572 136.065 56.476 136.137 56.332C136.209 56.164 136.269 55.996 136.317 55.828L136.857 54.208L137.541 52.588C137.613 52.324 137.733 51.964 137.901 51.508C138.069 51.052 138.201 50.716 138.297 50.5C138.417 50.212 138.513 49.936 138.585 49.672C138.657 49.384 138.741 49.108 138.837 48.844C138.861 48.7 138.897 48.508 138.945 48.268C139.017 48.028 139.089 47.788 139.161 47.548C139.233 47.284 139.305 47.044 139.377 46.828C139.449 46.588 139.509 46.396 139.557 46.252C139.629 46.06 139.701 45.904 139.773 45.784C139.845 45.64 139.917 45.472 139.989 45.28C140.157 44.824 140.325 44.32 140.493 43.768C140.661 43.216 140.829 42.676 140.997 42.148C141.117 41.812 141.213 41.5 141.285 41.212C141.357 40.924 141.441 40.66 141.537 40.42C141.585 40.348 141.657 40.228 141.753 40.06C141.873 39.868 141.933 39.748 141.933 39.7ZM161.489 60.364L161.237 60.4C161.117 60.424 161.033 60.424 160.985 60.4C160.961 60.4 160.853 60.4 160.661 60.4C160.637 60.4 160.565 60.412 160.445 60.436C160.325 60.46 160.193 60.484 160.049 60.508C159.905 60.532 159.749 60.532 159.581 60.508C159.413 60.508 159.281 60.484 159.185 60.436C159.065 60.436 158.981 60.424 158.933 60.4C158.885 60.376 158.801 60.364 158.681 60.364C158.561 60.268 158.489 60.124 158.465 59.932C158.465 59.74 158.465 59.584 158.465 59.464V58.564L158.177 58.96L157.529 59.572C157.289 59.74 157.085 59.872 156.917 59.968C156.773 60.088 156.593 60.208 156.377 60.328C156.017 60.544 155.621 60.688 155.189 60.76C154.781 60.832 154.397 60.868 154.037 60.868C153.677 60.868 153.293 60.796 152.885 60.652C152.501 60.508 152.153 60.376 151.841 60.256C151.745 60.232 151.649 60.184 151.553 60.112C151.481 60.064 151.409 60.016 151.337 59.968C151.193 59.848 151.025 59.728 150.833 59.608C150.665 59.488 150.521 59.368 150.401 59.248C150.329 59.2 150.257 59.152 150.185 59.104C150.137 59.032 150.065 58.972 149.969 58.924C149.849 58.852 149.741 58.732 149.645 58.564C149.525 58.3 149.369 58.048 149.177 57.808C149.009 57.544 148.865 57.244 148.745 56.908C148.673 56.644 148.577 56.392 148.457 56.152C148.337 55.912 148.277 55.684 148.277 55.468C148.277 55.348 148.265 55.144 148.241 54.856C148.217 54.568 148.205 54.364 148.205 54.244C148.205 54.028 148.205 53.86 148.205 53.74C148.229 53.62 148.241 53.44 148.241 53.2C148.241 53.08 148.253 52.96 148.277 52.84C148.325 52.696 148.373 52.516 148.421 52.3C148.469 52.036 148.505 51.76 148.529 51.472C148.553 51.16 148.589 50.908 148.637 50.716C148.805 50.404 148.913 50.212 148.961 50.14C149.033 50.068 149.093 49.936 149.141 49.744C149.189 49.6 149.249 49.42 149.321 49.204C149.417 48.964 149.549 48.784 149.717 48.664C149.789 48.616 149.897 48.532 150.041 48.412C150.185 48.292 150.329 48.16 150.473 48.016C150.641 47.872 150.785 47.752 150.905 47.656C151.025 47.536 151.109 47.476 151.157 47.476L151.805 47.188C151.997 47.116 152.213 47.068 152.453 47.044C152.693 46.996 152.921 46.972 153.137 46.972L154.253 46.936C154.373 46.936 154.505 46.936 154.649 46.936C154.817 46.936 154.925 46.948 154.973 46.972C155.093 46.972 155.213 47.008 155.333 47.08C155.453 47.152 155.573 47.188 155.693 47.188C155.813 47.188 155.957 47.236 156.125 47.332C156.317 47.404 156.473 47.5 156.593 47.62C156.833 47.716 157.013 47.836 157.133 47.98C157.277 48.1 157.409 48.22 157.529 48.34C157.649 48.46 157.757 48.58 157.853 48.7C157.973 48.796 158.093 48.904 158.213 49.024C158.213 49.096 158.261 49.156 158.357 49.204C158.405 49.228 158.441 49.252 158.465 49.276C158.513 49.228 158.537 49.132 158.537 48.988C158.561 48.844 158.609 48.712 158.681 48.592C158.705 48.256 158.717 47.956 158.717 47.692C158.741 47.404 158.765 47.212 158.789 47.116C158.765 47.02 158.777 46.888 158.825 46.72C158.873 46.528 158.957 46.456 159.077 46.504C159.125 46.48 159.233 46.48 159.401 46.504C159.569 46.528 159.761 46.564 159.977 46.612C160.193 46.636 160.409 46.66 160.625 46.684C160.865 46.708 161.069 46.72 161.237 46.72C161.261 46.72 161.273 46.78 161.273 46.9C161.273 47.02 161.261 47.116 161.237 47.188L161.453 50.644V54.532C161.453 54.604 161.441 54.676 161.417 54.748C161.417 54.82 161.417 54.892 161.417 54.964C161.441 55.18 161.453 55.408 161.453 55.648C161.453 55.864 161.453 56.092 161.453 56.332C161.477 56.5 161.477 56.68 161.453 56.872C161.453 57.04 161.453 57.22 161.453 57.412C161.453 57.556 161.453 57.76 161.453 58.024C161.477 58.264 161.489 58.516 161.489 58.78C161.489 59.044 161.489 59.296 161.489 59.536C161.489 59.8 161.489 60.016 161.489 60.184V60.364ZM156.845 54.928V54.82C156.845 54.676 156.869 54.364 156.917 53.884C156.965 53.38 156.857 52.768 156.593 52.048C156.521 51.856 156.413 51.652 156.269 51.436C156.125 51.22 155.897 51.052 155.585 50.932C155.417 50.884 155.261 50.836 155.117 50.788C154.973 50.716 154.817 50.692 154.649 50.716C154.481 50.764 154.265 50.872 154.001 51.04C153.761 51.208 153.557 51.412 153.389 51.652C153.269 51.772 153.197 51.904 153.173 52.048C153.149 52.192 153.125 52.36 153.101 52.552C153.029 52.864 152.969 53.104 152.921 53.272C152.897 53.44 152.885 53.656 152.885 53.92C152.885 54.4 153.017 54.82 153.281 55.18C153.569 55.54 153.749 55.78 153.821 55.9C153.893 55.972 153.953 56.02 154.001 56.044C154.073 56.044 154.169 56.104 154.289 56.224C154.529 56.344 154.757 56.368 154.973 56.296C155.189 56.2 155.429 56.092 155.693 55.972H155.909C156.125 55.852 156.305 55.732 156.449 55.612C156.593 55.492 156.725 55.312 156.845 55.072V54.928ZM165.028 47.224C165.028 47.152 165.016 47.08 164.992 47.008C164.968 46.936 164.968 46.864 164.992 46.792C165.016 46.792 165.052 46.792 165.1 46.792C165.172 46.768 165.232 46.756 165.28 46.756H165.496C165.616 46.732 165.736 46.732 165.856 46.756C165.976 46.756 166.096 46.744 166.216 46.72H167.296C167.344 46.72 167.392 46.744 167.44 46.792C167.488 46.84 167.524 46.876 167.548 46.9L167.62 47.224C167.62 47.296 167.632 47.38 167.656 47.476C167.704 47.668 167.728 47.872 167.728 48.088C167.752 48.16 167.764 48.232 167.764 48.304C167.764 48.448 167.776 48.52 167.8 48.52C167.896 48.424 167.968 48.328 168.016 48.232C168.064 48.112 168.124 48.028 168.196 47.98C168.268 47.908 168.316 47.86 168.34 47.836C168.388 47.812 168.424 47.788 168.448 47.764C168.496 47.74 168.556 47.716 168.628 47.692C168.7 47.644 168.808 47.572 168.952 47.476C169.168 47.356 169.36 47.26 169.528 47.188C169.72 47.116 170.008 46.984 170.392 46.792C170.464 46.768 170.584 46.732 170.752 46.684C170.944 46.636 171.148 46.6 171.364 46.576C171.58 46.528 171.796 46.504 172.012 46.504C172.252 46.48 172.456 46.468 172.624 46.468C172.888 46.492 173.104 46.528 173.272 46.576C173.44 46.6 173.668 46.636 173.956 46.684C174.076 46.708 174.268 46.732 174.532 46.756C174.82 46.78 175.012 46.816 175.108 46.864C175.708 47.2 176.188 47.488 176.548 47.728C176.908 47.968 177.22 48.292 177.484 48.7C177.532 48.748 177.604 48.808 177.7 48.88C177.796 48.928 177.904 49.012 178.024 49.132C178.144 49.252 178.252 49.42 178.348 49.636C178.468 49.828 178.528 49.948 178.528 49.996C178.624 50.404 178.732 50.74 178.852 51.004C178.972 51.244 179.044 51.568 179.068 51.976C179.092 52.168 179.152 52.384 179.248 52.624C179.344 52.84 179.392 53.068 179.392 53.308C179.392 53.548 179.404 53.824 179.428 54.136C179.452 54.424 179.44 54.844 179.392 55.396C179.392 55.564 179.392 55.72 179.392 55.864C179.416 56.008 179.428 56.152 179.428 56.296V57.952C179.428 58.12 179.428 58.276 179.428 58.42C179.428 58.564 179.416 58.708 179.392 58.852C179.392 59.044 179.392 59.212 179.392 59.356C179.416 59.5 179.428 59.668 179.428 59.86C179.428 59.908 179.428 59.956 179.428 60.004C179.428 60.076 179.404 60.124 179.356 60.148C179.308 60.172 179.236 60.184 179.14 60.184C179.068 60.184 179.008 60.184 178.96 60.184C178.744 60.184 178.54 60.184 178.348 60.184C178.156 60.208 177.952 60.208 177.736 60.184L176.656 60.076C176.56 60.052 176.428 60.052 176.26 60.076C176.092 60.1 175.984 60.064 175.936 59.968C175.912 59.416 175.9 59.032 175.9 58.816C175.924 58.576 175.936 58.36 175.936 58.168C175.936 58.048 175.924 57.904 175.9 57.736C175.876 57.544 175.852 57.292 175.828 56.98L175.936 55.072C175.936 54.832 175.924 54.652 175.9 54.532C175.9 54.388 175.888 54.28 175.864 54.208C175.864 54.112 175.852 54.004 175.828 53.884C175.828 53.764 175.828 53.572 175.828 53.308C175.828 52.876 175.744 52.444 175.576 52.012C175.432 51.58 175.252 51.148 175.036 50.716C174.916 50.476 174.76 50.26 174.568 50.068C174.376 49.876 174.124 49.708 173.812 49.564C173.764 49.54 173.704 49.516 173.632 49.492C173.56 49.468 173.5 49.456 173.452 49.456L172.624 49.384C172.216 49.36 171.796 49.432 171.364 49.6C170.932 49.768 170.668 49.936 170.572 50.104C170.404 50.392 170.272 50.608 170.176 50.752C170.08 50.896 169.984 51.04 169.888 51.184C169.864 51.256 169.828 51.388 169.78 51.58C169.732 51.748 169.672 51.964 169.6 52.228C169.552 52.468 169.504 52.732 169.456 53.02C169.408 53.284 169.384 53.524 169.384 53.74C169.384 53.908 169.384 54.076 169.384 54.244C169.384 54.388 169.372 54.532 169.348 54.676L169.276 55.684L169.06 57.052C169.06 57.292 169.06 57.556 169.06 57.844C169.06 58.108 169.048 58.36 169.024 58.6V59.428C168.88 59.524 168.76 59.572 168.664 59.572C168.4 59.62 168.208 59.668 168.088 59.716C167.992 59.764 167.8 59.776 167.512 59.752C167.248 59.728 166.9 59.728 166.468 59.752C166.036 59.8 165.688 59.8 165.424 59.752C165.16 59.704 165.028 59.668 165.028 59.644C165.028 59.644 165.028 59.584 165.028 59.464C165.028 59.368 165.028 59.224 165.028 59.032C165.052 58.816 165.064 58.6 165.064 58.384C165.064 58.144 165.064 57.916 165.064 57.7C165.088 57.484 165.1 57.316 165.1 57.196C165.1 56.764 165.088 56.404 165.064 56.116C165.04 55.828 165.028 55.468 165.028 55.036C165.028 54.676 165.016 54.388 164.992 54.172C164.992 53.932 164.98 53.632 164.956 53.272C164.956 53.08 164.968 52.84 164.992 52.552C165.016 52.24 165.028 51.916 165.028 51.58C165.028 51.172 165.016 50.776 164.992 50.392C164.992 50.008 164.992 49.72 164.992 49.528C164.968 49.12 164.956 48.736 164.956 48.376C164.956 47.992 164.98 47.608 165.028 47.224ZM190.478 46.504C190.958 47.32 191.462 48.184 191.99 49.096C192.542 50.008 193.13 50.968 193.754 51.976C193.874 52.312 194.018 52.624 194.186 52.912C194.378 53.176 194.57 53.404 194.762 53.596C194.858 53.788 194.978 54.028 195.122 54.316C195.266 54.58 195.41 54.808 195.554 55L195.626 54.856V53.02C195.626 52.972 195.626 52.948 195.626 52.948C195.65 52.924 195.662 52.888 195.662 52.84C195.566 52.288 195.542 51.796 195.59 51.364C195.662 50.908 195.674 50.428 195.626 49.924C195.65 49.756 195.662 49.6 195.662 49.456C195.662 49.312 195.662 49.168 195.662 49.024L195.59 47.152V42.688C195.59 42.592 195.59 42.412 195.59 42.148C195.614 41.884 195.626 41.596 195.626 41.284C195.626 40.948 195.626 40.624 195.626 40.312C195.626 40 195.626 39.76 195.626 39.592C195.626 39.496 195.638 39.412 195.662 39.34C195.71 39.244 195.83 39.196 196.022 39.196H197.21C197.426 39.196 197.678 39.232 197.966 39.304C198.254 39.376 198.446 39.412 198.542 39.412H198.722C198.722 40.228 198.722 41.068 198.722 41.932C198.746 42.772 198.758 43.576 198.758 44.344C198.782 45.088 198.806 45.784 198.83 46.432C198.854 47.056 198.878 47.56 198.902 47.944C198.878 48.136 198.866 48.328 198.866 48.52C198.89 48.688 198.89 48.868 198.866 49.06C198.842 49.324 198.83 49.588 198.83 49.852C198.854 50.116 198.866 50.38 198.866 50.644V52.372C198.89 53.02 198.878 53.536 198.83 53.92C198.806 54.304 198.794 54.532 198.794 54.604C198.77 54.94 198.758 55.276 198.758 55.612C198.758 55.948 198.758 56.284 198.758 56.62C198.782 57.076 198.782 57.532 198.758 57.988C198.734 58.42 198.734 58.864 198.758 59.32C198.758 59.512 198.758 59.692 198.758 59.86C198.758 60.028 198.77 60.208 198.794 60.4C198.794 60.52 198.662 60.58 198.398 60.58H197.21C196.922 60.628 196.694 60.64 196.526 60.616C196.358 60.592 196.238 60.58 196.166 60.58C196.046 60.268 195.938 60.004 195.842 59.788C195.746 59.596 195.638 59.404 195.518 59.212C195.422 59.02 195.314 58.828 195.194 58.636C195.074 58.42 194.93 58.168 194.762 57.88C194.69 57.76 194.594 57.604 194.474 57.412C194.354 57.196 194.246 57.028 194.15 56.908C194.006 56.74 193.886 56.548 193.79 56.332C193.694 56.092 193.538 55.876 193.322 55.684C193.01 55.204 192.71 54.712 192.422 54.208C192.134 53.68 191.822 53.152 191.486 52.624C191.15 52.12 190.766 51.604 190.334 51.076C189.902 50.524 189.47 49.912 189.038 49.24C188.846 48.784 188.558 48.316 188.174 47.836C187.814 47.356 187.502 46.9 187.238 46.468C187.238 46.42 187.226 46.516 187.202 46.756C187.202 46.996 187.202 47.272 187.202 47.584C187.202 47.872 187.19 48.148 187.166 48.412C187.166 48.652 187.166 48.772 187.166 48.772V49.06C187.19 49.252 187.19 49.444 187.166 49.636C187.142 49.804 187.13 49.984 187.13 50.176L187.058 54.64L187.13 56.512C187.13 56.656 187.13 56.8 187.13 56.944C187.154 57.088 187.154 57.244 187.13 57.412C187.178 57.748 187.19 58.108 187.166 58.492C187.142 58.852 187.142 59.212 187.166 59.572C187.19 59.908 187.178 60.148 187.13 60.292C187.106 60.436 187.07 60.532 187.022 60.58H184.178C183.986 60.58 183.782 60.58 183.566 60.58C183.374 60.604 183.182 60.604 182.99 60.58C182.966 60.58 182.942 60.472 182.918 60.256C182.918 60.064 182.918 59.824 182.918 59.536C182.918 59.272 182.918 58.996 182.918 58.708C182.918 58.42 182.918 58.204 182.918 58.06C182.918 57.724 182.918 57.388 182.918 57.052C182.942 56.692 182.942 56.344 182.918 56.008C182.918 55.672 182.93 55.348 182.954 55.036C182.978 54.7 182.978 54.364 182.954 54.028C182.954 53.788 182.942 53.596 182.918 53.452C182.918 53.284 182.918 53.14 182.918 53.02L182.846 52.48C182.846 52.432 182.846 52.408 182.846 52.408C182.87 52.384 182.882 52.348 182.882 52.3C182.786 51.748 182.75 51.208 182.774 50.68C182.822 50.152 182.822 49.636 182.774 49.132C182.798 48.964 182.81 48.808 182.81 48.664C182.81 48.52 182.81 48.376 182.81 48.232L182.738 46.36L182.846 41.896C182.846 41.704 182.834 41.524 182.81 41.356C182.81 41.164 182.798 40.972 182.774 40.78L182.99 40.456C183.11 40.456 183.314 40.456 183.602 40.456C183.89 40.432 184.226 40.432 184.61 40.456C184.922 40.456 185.15 40.444 185.294 40.42C185.462 40.372 185.642 40.348 185.834 40.348C185.954 40.348 186.05 40.372 186.122 40.42C186.218 40.444 186.338 40.456 186.482 40.456H187.238C187.31 40.648 187.406 40.852 187.526 41.068C187.67 41.284 187.802 41.512 187.922 41.752C188.186 42.28 188.378 42.736 188.498 43.12C188.642 43.48 188.774 43.744 188.894 43.912C188.99 44.032 189.11 44.2 189.254 44.416C189.398 44.632 189.542 44.86 189.686 45.1C189.83 45.34 189.962 45.592 190.082 45.856C190.226 46.096 190.358 46.312 190.478 46.504ZM209.568 46.504C210.048 47.32 210.552 48.184 211.08 49.096C211.632 50.008 212.22 50.968 212.844 51.976C212.964 52.312 213.108 52.624 213.276 52.912C213.468 53.176 213.66 53.404 213.852 53.596C213.948 53.788 214.068 54.028 214.212 54.316C214.356 54.58 214.5 54.808 214.644 55L214.716 54.856V53.02C214.716 52.972 214.716 52.948 214.716 52.948C214.74 52.924 214.752 52.888 214.752 52.84C214.656 52.288 214.632 51.796 214.68 51.364C214.752 50.908 214.764 50.428 214.716 49.924C214.74 49.756 214.752 49.6 214.752 49.456C214.752 49.312 214.752 49.168 214.752 49.024L214.68 47.152V42.688C214.68 42.592 214.68 42.412 214.68 42.148C214.704 41.884 214.716 41.596 214.716 41.284C214.716 40.948 214.716 40.624 214.716 40.312C214.716 40 214.716 39.76 214.716 39.592C214.716 39.496 214.728 39.412 214.752 39.34C214.8 39.244 214.92 39.196 215.112 39.196H216.3C216.516 39.196 216.768 39.232 217.056 39.304C217.344 39.376 217.536 39.412 217.632 39.412H217.812C217.812 40.228 217.812 41.068 217.812 41.932C217.836 42.772 217.848 43.576 217.848 44.344C217.872 45.088 217.896 45.784 217.92 46.432C217.944 47.056 217.968 47.56 217.992 47.944C217.968 48.136 217.956 48.328 217.956 48.52C217.98 48.688 217.98 48.868 217.956 49.06C217.932 49.324 217.92 49.588 217.92 49.852C217.944 50.116 217.956 50.38 217.956 50.644V52.372C217.98 53.02 217.968 53.536 217.92 53.92C217.896 54.304 217.884 54.532 217.884 54.604C217.86 54.94 217.848 55.276 217.848 55.612C217.848 55.948 217.848 56.284 217.848 56.62C217.872 57.076 217.872 57.532 217.848 57.988C217.824 58.42 217.824 58.864 217.848 59.32C217.848 59.512 217.848 59.692 217.848 59.86C217.848 60.028 217.86 60.208 217.884 60.4C217.884 60.52 217.752 60.58 217.488 60.58H216.3C216.012 60.628 215.784 60.64 215.616 60.616C215.448 60.592 215.328 60.58 215.256 60.58C215.136 60.268 215.028 60.004 214.932 59.788C214.836 59.596 214.728 59.404 214.608 59.212C214.512 59.02 214.404 58.828 214.284 58.636C214.164 58.42 214.02 58.168 213.852 57.88C213.78 57.76 213.684 57.604 213.564 57.412C213.444 57.196 213.336 57.028 213.24 56.908C213.096 56.74 212.976 56.548 212.88 56.332C212.784 56.092 212.628 55.876 212.412 55.684C212.1 55.204 211.8 54.712 211.512 54.208C211.224 53.68 210.912 53.152 210.576 52.624C210.24 52.12 209.856 51.604 209.424 51.076C208.992 50.524 208.56 49.912 208.128 49.24C207.936 48.784 207.648 48.316 207.264 47.836C206.904 47.356 206.592 46.9 206.328 46.468C206.328 46.42 206.316 46.516 206.292 46.756C206.292 46.996 206.292 47.272 206.292 47.584C206.292 47.872 206.28 48.148 206.256 48.412C206.256 48.652 206.256 48.772 206.256 48.772V49.06C206.28 49.252 206.28 49.444 206.256 49.636C206.232 49.804 206.22 49.984 206.22 50.176L206.148 54.64L206.22 56.512C206.22 56.656 206.22 56.8 206.22 56.944C206.244 57.088 206.244 57.244 206.22 57.412C206.268 57.748 206.28 58.108 206.256 58.492C206.232 58.852 206.232 59.212 206.256 59.572C206.28 59.908 206.268 60.148 206.22 60.292C206.196 60.436 206.16 60.532 206.112 60.58H203.268C203.076 60.58 202.872 60.58 202.656 60.58C202.464 60.604 202.272 60.604 202.08 60.58C202.056 60.58 202.032 60.472 202.008 60.256C202.008 60.064 202.008 59.824 202.008 59.536C202.008 59.272 202.008 58.996 202.008 58.708C202.008 58.42 202.008 58.204 202.008 58.06C202.008 57.724 202.008 57.388 202.008 57.052C202.032 56.692 202.032 56.344 202.008 56.008C202.008 55.672 202.02 55.348 202.044 55.036C202.068 54.7 202.068 54.364 202.044 54.028C202.044 53.788 202.032 53.596 202.008 53.452C202.008 53.284 202.008 53.14 202.008 53.02L201.936 52.48C201.936 52.432 201.936 52.408 201.936 52.408C201.96 52.384 201.972 52.348 201.972 52.3C201.876 51.748 201.84 51.208 201.864 50.68C201.912 50.152 201.912 49.636 201.864 49.132C201.888 48.964 201.9 48.808 201.9 48.664C201.9 48.52 201.9 48.376 201.9 48.232L201.828 46.36L201.936 41.896C201.936 41.704 201.924 41.524 201.9 41.356C201.9 41.164 201.888 40.972 201.864 40.78L202.08 40.456C202.2 40.456 202.404 40.456 202.692 40.456C202.98 40.432 203.316 40.432 203.7 40.456C204.012 40.456 204.24 40.444 204.384 40.42C204.552 40.372 204.732 40.348 204.924 40.348C205.044 40.348 205.14 40.372 205.212 40.42C205.308 40.444 205.428 40.456 205.572 40.456H206.328C206.4 40.648 206.496 40.852 206.616 41.068C206.76 41.284 206.892 41.512 207.012 41.752C207.276 42.28 207.468 42.736 207.588 43.12C207.732 43.48 207.864 43.744 207.984 43.912C208.08 44.032 208.2 44.2 208.344 44.416C208.488 44.632 208.632 44.86 208.776 45.1C208.92 45.34 209.052 45.592 209.172 45.856C209.316 46.096 209.448 46.312 209.568 46.504ZM233.805 60.364L233.553 60.4C233.433 60.424 233.349 60.424 233.301 60.4C233.277 60.4 233.169 60.4 232.977 60.4C232.953 60.4 232.881 60.412 232.761 60.436C232.641 60.46 232.509 60.484 232.365 60.508C232.221 60.532 232.065 60.532 231.897 60.508C231.729 60.508 231.597 60.484 231.501 60.436C231.381 60.436 231.297 60.424 231.249 60.4C231.201 60.376 231.117 60.364 230.997 60.364C230.877 60.268 230.805 60.124 230.781 59.932C230.781 59.74 230.781 59.584 230.781 59.464V58.564L230.493 58.96L229.845 59.572C229.605 59.74 229.401 59.872 229.233 59.968C229.089 60.088 228.909 60.208 228.693 60.328C228.333 60.544 227.937 60.688 227.505 60.76C227.097 60.832 226.713 60.868 226.353 60.868C225.993 60.868 225.609 60.796 225.201 60.652C224.817 60.508 224.469 60.376 224.157 60.256C224.061 60.232 223.965 60.184 223.869 60.112C223.797 60.064 223.725 60.016 223.653 59.968C223.509 59.848 223.341 59.728 223.149 59.608C222.981 59.488 222.837 59.368 222.717 59.248C222.645 59.2 222.573 59.152 222.501 59.104C222.453 59.032 222.381 58.972 222.285 58.924C222.165 58.852 222.057 58.732 221.961 58.564C221.841 58.3 221.685 58.048 221.493 57.808C221.325 57.544 221.181 57.244 221.061 56.908C220.989 56.644 220.893 56.392 220.773 56.152C220.653 55.912 220.593 55.684 220.593 55.468C220.593 55.348 220.581 55.144 220.557 54.856C220.533 54.568 220.521 54.364 220.521 54.244C220.521 54.028 220.521 53.86 220.521 53.74C220.545 53.62 220.557 53.44 220.557 53.2C220.557 53.08 220.569 52.96 220.593 52.84C220.641 52.696 220.689 52.516 220.737 52.3C220.785 52.036 220.821 51.76 220.845 51.472C220.869 51.16 220.905 50.908 220.953 50.716C221.121 50.404 221.229 50.212 221.277 50.14C221.349 50.068 221.409 49.936 221.457 49.744C221.505 49.6 221.565 49.42 221.637 49.204C221.733 48.964 221.865 48.784 222.033 48.664C222.105 48.616 222.213 48.532 222.357 48.412C222.501 48.292 222.645 48.16 222.789 48.016C222.957 47.872 223.101 47.752 223.221 47.656C223.341 47.536 223.425 47.476 223.473 47.476L224.121 47.188C224.313 47.116 224.529 47.068 224.769 47.044C225.009 46.996 225.237 46.972 225.453 46.972L226.569 46.936C226.689 46.936 226.821 46.936 226.965 46.936C227.133 46.936 227.241 46.948 227.289 46.972C227.409 46.972 227.529 47.008 227.649 47.08C227.769 47.152 227.889 47.188 228.009 47.188C228.129 47.188 228.273 47.236 228.441 47.332C228.633 47.404 228.789 47.5 228.909 47.62C229.149 47.716 229.329 47.836 229.449 47.98C229.593 48.1 229.725 48.22 229.845 48.34C229.965 48.46 230.073 48.58 230.169 48.7C230.289 48.796 230.409 48.904 230.529 49.024C230.529 49.096 230.577 49.156 230.673 49.204C230.721 49.228 230.757 49.252 230.781 49.276C230.829 49.228 230.853 49.132 230.853 48.988C230.877 48.844 230.925 48.712 230.997 48.592C231.021 48.256 231.033 47.956 231.033 47.692C231.057 47.404 231.081 47.212 231.105 47.116C231.081 47.02 231.093 46.888 231.141 46.72C231.189 46.528 231.273 46.456 231.393 46.504C231.441 46.48 231.549 46.48 231.717 46.504C231.885 46.528 232.077 46.564 232.293 46.612C232.509 46.636 232.725 46.66 232.941 46.684C233.181 46.708 233.385 46.72 233.553 46.72C233.577 46.72 233.589 46.78 233.589 46.9C233.589 47.02 233.577 47.116 233.553 47.188L233.769 50.644V54.532C233.769 54.604 233.757 54.676 233.733 54.748C233.733 54.82 233.733 54.892 233.733 54.964C233.757 55.18 233.769 55.408 233.769 55.648C233.769 55.864 233.769 56.092 233.769 56.332C233.793 56.5 233.793 56.68 233.769 56.872C233.769 57.04 233.769 57.22 233.769 57.412C233.769 57.556 233.769 57.76 233.769 58.024C233.793 58.264 233.805 58.516 233.805 58.78C233.805 59.044 233.805 59.296 233.805 59.536C233.805 59.8 233.805 60.016 233.805 60.184V60.364ZM229.161 54.928V54.82C229.161 54.676 229.185 54.364 229.233 53.884C229.281 53.38 229.173 52.768 228.909 52.048C228.837 51.856 228.729 51.652 228.585 51.436C228.441 51.22 228.213 51.052 227.901 50.932C227.733 50.884 227.577 50.836 227.433 50.788C227.289 50.716 227.133 50.692 226.965 50.716C226.797 50.764 226.581 50.872 226.317 51.04C226.077 51.208 225.873 51.412 225.705 51.652C225.585 51.772 225.513 51.904 225.489 52.048C225.465 52.192 225.441 52.36 225.417 52.552C225.345 52.864 225.285 53.104 225.237 53.272C225.213 53.44 225.201 53.656 225.201 53.92C225.201 54.4 225.333 54.82 225.597 55.18C225.885 55.54 226.065 55.78 226.137 55.9C226.209 55.972 226.269 56.02 226.317 56.044C226.389 56.044 226.485 56.104 226.605 56.224C226.845 56.344 227.073 56.368 227.289 56.296C227.505 56.2 227.745 56.092 228.009 55.972H228.225C228.441 55.852 228.621 55.732 228.765 55.612C228.909 55.492 229.041 55.312 229.161 55.072V54.928ZM249.405 52.444C249.477 52.516 249.525 52.636 249.549 52.804C249.573 52.948 249.585 53.104 249.585 53.272C249.609 53.416 249.621 53.56 249.621 53.704C249.621 53.824 249.621 53.92 249.621 53.992C249.669 54.328 249.657 54.712 249.585 55.144C249.537 55.576 249.417 55.948 249.225 56.26L248.757 57.052C248.565 57.34 248.397 57.544 248.253 57.664C248.133 57.76 247.965 57.94 247.749 58.204C247.653 58.348 247.533 58.48 247.389 58.6C247.245 58.696 247.113 58.804 246.993 58.924L246.273 59.248C246.081 59.344 245.865 59.428 245.625 59.5C245.409 59.572 245.205 59.608 245.013 59.608C244.413 59.704 243.813 59.8 243.213 59.896C242.613 59.992 242.001 60.04 241.377 60.04C241.185 60.04 240.957 60.04 240.693 60.04C240.429 60.064 240.201 60.076 240.009 60.076C239.817 60.1 239.601 60.064 239.361 59.968C239.145 59.896 238.965 59.86 238.821 59.86L237.741 59.752C237.621 59.728 237.453 59.704 237.237 59.68C237.021 59.656 236.829 59.644 236.661 59.644V58.78C236.685 58.66 236.697 58.54 236.697 58.42C236.697 58.276 236.697 58.132 236.697 57.988C236.673 57.724 236.673 57.472 236.697 57.232C236.721 56.968 236.721 56.704 236.697 56.44C236.673 56.32 236.661 56.2 236.661 56.08C236.661 55.936 236.661 55.804 236.661 55.684C236.685 55.444 236.673 55.204 236.625 54.964C236.577 54.724 236.577 54.484 236.625 54.244C236.721 53.812 236.757 53.38 236.733 52.948C236.709 52.516 236.685 52.048 236.661 51.544C236.637 51.304 236.625 51.076 236.625 50.86C236.625 50.644 236.625 50.428 236.625 50.212L236.661 48.412C236.661 48.268 236.661 48.076 236.661 47.836C236.661 47.596 236.649 47.356 236.625 47.116C236.625 46.852 236.613 46.612 236.589 46.396C236.589 46.18 236.589 46.024 236.589 45.928C236.541 45.712 236.541 45.472 236.589 45.208C236.613 45.04 236.625 44.86 236.625 44.668C236.649 44.476 236.661 44.284 236.661 44.092C236.709 43.708 236.721 43.264 236.697 42.76C236.697 42.232 236.697 41.764 236.697 41.356C236.697 41.068 236.709 40.804 236.733 40.564C236.757 40.324 236.781 40.168 236.805 40.096C236.781 39.76 236.781 39.496 236.805 39.304C236.829 39.112 236.841 38.956 236.841 38.836H240.657C241.137 38.836 241.629 38.872 242.133 38.944C242.637 38.992 243.141 39.04 243.645 39.088C243.861 39.136 244.017 39.184 244.113 39.232C244.281 39.28 244.425 39.316 244.545 39.34C244.665 39.364 244.773 39.4 244.869 39.448C244.989 39.568 245.145 39.688 245.337 39.808C245.529 39.928 245.709 40.048 245.877 40.168C246.069 40.264 246.237 40.384 246.381 40.528C246.549 40.648 246.657 40.78 246.705 40.924C246.753 41.044 246.813 41.176 246.885 41.32C246.981 41.44 247.053 41.56 247.101 41.68C247.173 41.968 247.221 42.352 247.245 42.832C247.293 43.288 247.293 43.756 247.245 44.236C247.197 44.716 247.101 45.172 246.957 45.604C246.837 46.036 246.657 46.372 246.417 46.612C246.153 46.972 245.877 47.272 245.589 47.512C245.325 47.728 245.085 47.896 244.869 48.016C244.749 48.016 244.641 48.052 244.545 48.124C244.449 48.172 244.353 48.196 244.257 48.196C244.449 48.316 244.605 48.388 244.725 48.412C244.845 48.412 245.001 48.472 245.193 48.592C245.241 48.592 245.325 48.616 245.445 48.664C245.565 48.712 245.649 48.736 245.697 48.736C245.889 48.736 246.081 48.796 246.273 48.916C246.489 49.036 246.753 49.168 247.065 49.312C247.137 49.36 247.233 49.432 247.353 49.528C247.497 49.6 247.641 49.696 247.785 49.816C247.929 49.912 248.061 50.008 248.181 50.104C248.301 50.2 248.385 50.284 248.433 50.356C248.625 50.548 248.721 50.68 248.721 50.752C248.721 50.824 248.805 50.968 248.973 51.184C249.117 51.376 249.213 51.568 249.261 51.76C249.309 51.952 249.357 52.18 249.405 52.444ZM240.693 57.16C240.789 57.16 240.933 57.148 241.125 57.124C241.341 57.1 241.545 57.076 241.737 57.052C241.953 57.028 242.145 57.016 242.313 57.016C242.481 56.992 242.565 56.98 242.565 56.98C242.733 56.932 242.889 56.896 243.033 56.872C243.201 56.824 243.357 56.776 243.501 56.728C243.885 56.56 244.149 56.356 244.293 56.116C244.461 55.876 244.629 55.576 244.797 55.216C244.917 54.952 244.989 54.664 245.013 54.352C245.061 54.04 245.073 53.752 245.049 53.488C245.049 53.32 245.049 53.164 245.049 53.02C245.049 52.876 245.037 52.72 245.013 52.552C245.013 52.336 244.977 52.084 244.905 51.796C244.857 51.484 244.737 51.256 244.545 51.112C244.377 50.848 244.065 50.644 243.609 50.5C243.153 50.332 242.769 50.224 242.457 50.176C242.241 50.176 242.037 50.176 241.845 50.176C241.677 50.152 241.533 50.092 241.413 49.996H239.109C239.133 50.044 239.133 50.152 239.109 50.32C239.109 50.488 239.109 50.596 239.109 50.644C239.109 51.196 239.085 51.76 239.037 52.336C238.989 52.888 238.977 53.392 239.001 53.848L239.073 55.504C239.073 55.552 239.073 55.648 239.073 55.792C239.073 55.936 239.073 56.092 239.073 56.26C239.073 56.428 239.073 56.584 239.073 56.728C239.073 56.848 239.073 56.932 239.073 56.98C239.361 57.028 239.637 57.064 239.901 57.088C240.165 57.112 240.429 57.136 240.693 57.16ZM240.225 46.036C240.321 46.036 240.453 45.988 240.621 45.892C240.813 45.772 240.957 45.616 241.053 45.424C241.173 45.232 241.293 44.992 241.413 44.704C241.533 44.416 241.533 44.128 241.413 43.84C241.413 43.528 241.329 43.216 241.161 42.904C240.993 42.592 240.741 42.376 240.405 42.256C240.309 42.256 240.249 42.256 240.225 42.256C240.201 42.232 240.141 42.22 240.045 42.22C239.949 42.268 239.889 42.28 239.865 42.256C239.841 42.232 239.769 42.22 239.649 42.22H239.433C239.433 42.844 239.409 43.48 239.361 44.128C239.313 44.776 239.337 45.412 239.433 46.036H240.225ZM266.363 39.772C266.267 40.084 266.243 40.42 266.291 40.78C266.339 41.14 266.363 41.488 266.363 41.824C266.267 41.824 266.087 41.86 265.823 41.932C265.583 41.98 265.355 42.016 265.139 42.04C265.043 42.04 264.935 42.04 264.815 42.04C264.695 42.016 264.599 42.016 264.527 42.04L263.843 42.184H261.827C261.323 42.208 260.867 42.22 260.459 42.22C260.075 42.196 259.631 42.184 259.127 42.184C259.031 42.184 258.887 42.196 258.695 42.22C258.527 42.244 258.407 42.244 258.335 42.22C258.335 42.34 258.323 42.436 258.299 42.508C258.275 42.58 258.263 42.676 258.263 42.796C258.287 42.868 258.299 43.048 258.299 43.336C258.323 43.624 258.335 43.948 258.335 44.308C258.359 44.644 258.371 44.956 258.371 45.244C258.395 45.532 258.407 45.712 258.407 45.784V47.404C258.407 47.596 258.407 47.752 258.407 47.872C258.431 47.992 258.467 48.16 258.515 48.376H260.603C260.987 48.376 261.347 48.388 261.683 48.412C262.019 48.436 262.391 48.448 262.799 48.448C263.015 48.448 263.267 48.46 263.555 48.484C263.867 48.508 264.107 48.496 264.275 48.448C264.299 48.664 264.323 48.892 264.347 49.132C264.371 49.372 264.383 49.588 264.383 49.78V50.356C264.287 50.356 264.107 50.368 263.843 50.392C263.579 50.416 263.339 50.44 263.123 50.464H261.611C261.131 50.536 260.687 50.572 260.279 50.572C259.871 50.572 259.415 50.572 258.911 50.572C258.815 50.572 258.695 50.584 258.551 50.608C258.407 50.632 258.299 50.632 258.227 50.608V51.94C258.227 52.276 258.227 52.624 258.227 52.984C258.251 53.344 258.299 53.656 258.371 53.92C258.371 54.352 258.371 54.76 258.371 55.144C258.395 55.504 258.407 55.84 258.407 56.152V56.764C258.455 56.74 258.599 56.752 258.839 56.8C259.103 56.848 259.415 56.896 259.775 56.944C260.135 56.992 260.435 57.028 260.675 57.052C260.939 57.076 261.179 57.124 261.395 57.196C261.515 57.244 261.767 57.28 262.151 57.304C262.559 57.304 262.823 57.304 262.943 57.304C263.543 57.376 264.131 57.424 264.707 57.448C265.283 57.472 265.871 57.508 266.471 57.556H267.767C267.863 57.556 267.971 57.544 268.091 57.52C268.211 57.472 268.295 57.448 268.343 57.448C268.463 57.88 268.523 58.3 268.523 58.708C268.547 59.116 268.559 59.524 268.559 59.932C268.367 60.052 268.127 60.112 267.839 60.112C267.551 60.112 267.275 60.124 267.011 60.148C266.843 60.148 266.663 60.136 266.471 60.112C266.279 60.088 266.087 60.076 265.895 60.076C265.415 60.1 264.839 60.1 264.167 60.076C263.519 60.052 262.955 60.064 262.475 60.112H261.935C261.671 60.064 261.299 60.028 260.819 60.004C260.363 59.98 260.015 59.968 259.775 59.968C259.511 59.944 259.091 59.944 258.515 59.968C257.939 60.016 256.979 60.052 255.635 60.076C255.587 60.076 255.419 60.076 255.131 60.076C254.867 60.076 254.567 60.076 254.231 60.076C253.919 60.1 253.619 60.112 253.331 60.112C253.067 60.136 252.911 60.148 252.863 60.148C252.863 59.644 252.827 59.152 252.755 58.672C252.707 58.192 252.683 57.748 252.683 57.34C252.683 57.1 252.671 56.824 252.647 56.512C252.623 56.2 252.635 55.936 252.683 55.72C252.731 54.952 252.743 54.196 252.719 53.452C252.719 52.708 252.719 51.952 252.719 51.184C252.719 51.016 252.707 50.716 252.683 50.284C252.659 49.852 252.659 49.444 252.683 49.06L252.611 47.944C252.587 47.776 252.599 47.476 252.647 47.044C252.719 46.588 252.743 46.192 252.719 45.856C252.695 45.304 252.671 44.824 252.647 44.416C252.623 43.984 252.599 43.48 252.575 42.904C252.551 42.4 252.551 41.908 252.575 41.428C252.623 40.924 252.647 40.444 252.647 39.988C252.647 39.868 252.647 39.772 252.647 39.7C252.671 39.604 252.743 39.508 252.863 39.412L254.699 39.484C255.059 39.508 255.467 39.508 255.923 39.484C256.403 39.46 256.823 39.46 257.183 39.484C257.279 39.484 257.363 39.484 257.435 39.484C257.531 39.46 257.627 39.448 257.723 39.448C257.795 39.448 257.951 39.448 258.191 39.448C258.431 39.448 258.683 39.448 258.947 39.448C259.211 39.448 259.451 39.448 259.667 39.448C259.883 39.448 260.015 39.46 260.063 39.484C260.111 39.508 260.255 39.532 260.495 39.556C260.735 39.58 260.915 39.592 261.035 39.592C261.107 39.592 261.215 39.592 261.359 39.592C261.503 39.568 261.647 39.556 261.791 39.556C261.959 39.556 262.115 39.556 262.259 39.556C262.403 39.556 262.511 39.556 262.583 39.556C262.847 39.604 263.087 39.628 263.303 39.628C263.543 39.604 263.795 39.604 264.059 39.628C264.083 39.628 264.203 39.64 264.419 39.664C264.659 39.664 264.923 39.676 265.211 39.7C265.499 39.724 265.751 39.748 265.967 39.772C266.207 39.772 266.339 39.772 266.363 39.772Z" fill="white"/>
<defs>
<radialGradient id="paint0_diamond_138_751" cx="0" cy="0" r="1" gradientUnits="userSpaceOnUse" gradientTransform="translate(147 50.5) rotate(90) scale(46 149.5)">
<stop offset="0.169227" stop-color="#FED154" stop-opacity="0.99"/>
<stop offset="1" stop-color="#D9D9D9" stop-opacity="0"/>
</radialGradient>
</defs>
</svg>
