<svg width="58" height="16" viewBox="0 0 58 16" fill="none" xmlns="http://www.w3.org/2000/svg">
<rect x="0.5" y="0.5" width="57" height="15" rx="3.5" fill="#849EB9" stroke="#475264"/>
<path d="M19.8016 7.51758V7.95703C19.8016 8.60156 19.7156 9.18164 19.5438 9.69727C19.3719 10.209 19.1277 10.6445 18.8113 11.0039C18.4949 11.3633 18.118 11.6387 17.6805 11.8301C17.243 12.0215 16.7566 12.1172 16.2215 12.1172C15.6941 12.1172 15.2098 12.0215 14.7684 11.8301C14.3309 11.6387 13.952 11.3633 13.6316 11.0039C13.3113 10.6445 13.0633 10.209 12.8875 9.69727C12.7117 9.18164 12.6238 8.60156 12.6238 7.95703V7.51758C12.6238 6.86914 12.7117 6.28906 12.8875 5.77734C13.0633 5.26562 13.3094 4.83008 13.6258 4.4707C13.9422 4.10742 14.3191 3.83008 14.7566 3.63867C15.198 3.44727 15.6824 3.35156 16.2098 3.35156C16.7449 3.35156 17.2313 3.44727 17.6688 3.63867C18.1063 3.83008 18.4832 4.10742 18.7996 4.4707C19.1199 4.83008 19.366 5.26562 19.5379 5.77734C19.7137 6.28906 19.8016 6.86914 19.8016 7.51758ZM18.1727 7.95703V7.50586C18.1727 7.04102 18.1297 6.63281 18.0438 6.28125C17.9578 5.92578 17.8309 5.62695 17.6629 5.38477C17.4949 5.14258 17.2879 4.96094 17.0418 4.83984C16.7957 4.71484 16.5184 4.65234 16.2098 4.65234C15.8973 4.65234 15.6199 4.71484 15.3777 4.83984C15.1395 4.96094 14.9363 5.14258 14.7684 5.38477C14.6004 5.62695 14.4715 5.92578 14.3816 6.28125C14.2957 6.63281 14.2527 7.04102 14.2527 7.50586V7.95703C14.2527 8.41797 14.2957 8.82617 14.3816 9.18164C14.4715 9.53711 14.6004 9.83789 14.7684 10.084C14.9402 10.3262 15.1473 10.5098 15.3895 10.6348C15.6316 10.7598 15.909 10.8223 16.2215 10.8223C16.534 10.8223 16.8113 10.7598 17.0535 10.6348C17.2957 10.5098 17.4988 10.3262 17.6629 10.084C17.8309 9.83789 17.9578 9.53711 18.0438 9.18164C18.1297 8.82617 18.1727 8.41797 18.1727 7.95703ZM25.648 8.88867H23.4508V7.62305H25.648C26.0074 7.62305 26.2984 7.56445 26.5211 7.44727C26.7477 7.32617 26.9137 7.16211 27.0191 6.95508C27.1246 6.74414 27.1773 6.50391 27.1773 6.23438C27.1773 5.97266 27.1246 5.72852 27.0191 5.50195C26.9137 5.27539 26.7477 5.0918 26.5211 4.95117C26.2984 4.81055 26.0074 4.74023 25.648 4.74023H23.9781V12H22.3668V3.46875H25.648C26.3121 3.46875 26.8785 3.58789 27.3473 3.82617C27.8199 4.06055 28.1793 4.38672 28.4254 4.80469C28.6754 5.21875 28.8004 5.69141 28.8004 6.22266C28.8004 6.77344 28.6754 7.24805 28.4254 7.64648C28.1793 8.04492 27.8199 8.35156 27.3473 8.56641C26.8785 8.78125 26.3121 8.88867 25.648 8.88867ZM36.9203 10.7344V12H32.3852V10.7344H36.9203ZM32.8773 3.46875V12H31.266V3.46875H32.8773ZM36.3285 6.99023V8.22656H32.3852V6.99023H36.3285ZM36.9027 3.46875V4.74023H32.3852V3.46875H36.9027ZM46.0949 3.46875V12H44.4777L40.8508 6.08203V12H39.2395V3.46875H40.8508L44.4895 9.39258V3.46875H46.0949Z" fill="#54FE98"/>
</svg>
